<?xml version="1.0" encoding="utf-8"?>
<!-- Generator: Adobe Illustrator 24.1.3, SVG Export Plug-In . SVG Version: 6.00 Build 0)  -->
<svg version="1.1" xmlns="http://www.w3.org/2000/svg" xmlns:xlink="http://www.w3.org/1999/xlink" x="0px" y="0px"
	 viewBox="0 0 1000 1000" style="enable-background:new 0 0 1000 1000;" xml:space="preserve">
<style type="text/css">
	.st0{opacity:0.9;}
	.st1{fill:#2040DF;}
	.st2{fill:#09406D;}
	.st3{fill:#231F20;}
</style>
<g id="Blue" class="st0">
	<g>
		
			<rect x="-28.5" y="452.9" transform="matrix(0.7071 -0.7071 0.7071 0.7071 -210.0357 492.9289)" class="st1" width="1037.1" height="94.3"/>
		
			<rect x="442.9" y="-18.5" transform="matrix(0.7071 -0.7071 0.7071 0.7071 -210.0357 492.9289)" class="st1" width="94.3" height="1037.1"/>
		
			<rect x="709.5" y="91.9" transform="matrix(0.7071 -0.7071 0.7071 0.7071 56.631 603.3859)" class="st1" width="94.3" height="282.8"/>
		
			<rect x="615.2" y="719.5" transform="matrix(0.7071 -0.7071 0.7071 0.7071 -320.4927 759.5956)" class="st1" width="282.8" height="94.3"/>
		
			<rect x="81.9" y="186.2" transform="matrix(0.7071 -0.7071 0.7071 0.7071 -99.5788 226.2623)" class="st1" width="282.8" height="94.3"/>
		
			<rect x="176.2" y="625.2" transform="matrix(0.7071 -0.7071 0.7071 0.7071 -476.7024 382.472)" class="st1" width="94.3" height="282.8"/>
		<path class="st1" d="M656.7,333.3c-92-92-241.3-92-333.3,0s-92,241.3,0,333.3s241.3,92,333.3,0S748.7,425.4,656.7,333.3z M390,600
			c-55.2-55.2-55.2-144.8,0-200c55.2-55.2,144.8-55.2,200,0s55.2,144.8,0,200C534.8,655.2,445.2,655.2,390,600z"/>
	</g>
</g>
<g id="Teal" class="st0">
	<g>
		
			<rect x="-8.5" y="452.9" transform="matrix(0.7071 -0.7071 0.7071 0.7071 -204.1779 507.0711)" class="st2" width="1037.1" height="94.3"/>
		
			<rect x="462.9" y="-18.5" transform="matrix(0.7071 -0.7071 0.7071 0.7071 -204.1779 507.0711)" class="st2" width="94.3" height="1037.1"/>
		
			<rect x="729.5" y="91.9" transform="matrix(0.7071 -0.7071 0.7071 0.7071 62.4888 617.528)" class="st2" width="94.3" height="282.8"/>
		
			<rect x="635.2" y="719.5" transform="matrix(0.7071 -0.7071 0.7071 0.7071 -314.6348 773.7377)" class="st2" width="282.8" height="94.3"/>
		
			<rect x="101.9" y="186.2" transform="matrix(0.7071 -0.7071 0.7071 0.7071 -93.7209 240.4044)" class="st2" width="282.8" height="94.3"/>
		
			<rect x="196.2" y="625.2" transform="matrix(0.7071 -0.7071 0.7071 0.7071 -470.8445 396.6141)" class="st2" width="94.3" height="282.8"/>
		<path class="st2" d="M676.7,333.3c-92-92-241.3-92-333.3,0s-92,241.3,0,333.3s241.3,92,333.3,0S768.7,425.4,676.7,333.3z M410,600
			c-55.2-55.2-55.2-144.8,0-200c55.2-55.2,144.8-55.2,200,0s55.2,144.8,0,200C554.8,655.2,465.2,655.2,410,600z"/>
	</g>
</g>
<g id="Black" class="st0">
	<g>
		
			<rect x="-18.5" y="452.9" transform="matrix(0.7071 -0.7071 0.7071 0.7071 -207.1068 500)" class="st3" width="1037.1" height="94.3"/>
		
			<rect x="452.9" y="-18.5" transform="matrix(0.7071 -0.7071 0.7071 0.7071 -207.1068 500)" class="st3" width="94.3" height="1037.1"/>
		
			<rect x="719.5" y="91.9" transform="matrix(0.7071 -0.7071 0.7071 0.7071 59.5599 610.457)" class="st3" width="94.3" height="282.8"/>
		
			<rect x="625.2" y="719.5" transform="matrix(0.7071 -0.7071 0.7071 0.7071 -317.5637 766.6667)" class="st3" width="282.8" height="94.3"/>
		
			<rect x="91.9" y="186.2" transform="matrix(0.7071 -0.7071 0.7071 0.7071 -96.6498 233.3333)" class="st3" width="282.8" height="94.3"/>
		
			<rect x="186.2" y="625.2" transform="matrix(0.7071 -0.7071 0.7071 0.7071 -473.7734 389.5431)" class="st3" width="94.3" height="282.8"/>
		<path class="st3" d="M666.7,333.3c-92-92-241.3-92-333.3,0s-92,241.3,0,333.3s241.3,92,333.3,0S758.7,425.4,666.7,333.3z M400,600
			c-55.2-55.2-55.2-144.8,0-200c55.2-55.2,144.8-55.2,200,0s55.2,144.8,0,200C544.8,655.2,455.2,655.2,400,600z"/>
	</g>
</g>
</svg>
